<mxfile host="app.diagrams.net" modified="2022-10-07T14:58:24.638Z" agent="5.0 (Windows NT 10.0; Win64; x64) AppleWebKit/537.36 (KHTML, like Gecko) Chrome/105.0.0.0 Safari/537.36" etag="UZzdb3uLwMzRO4gHIEcw" version="20.4.0" type="github">
  <diagram id="Z_jb_i1OUhFMdzfZDqN_" name="페이지-1">
    <mxGraphModel dx="1038" dy="579" grid="1" gridSize="10" guides="1" tooltips="1" connect="1" arrows="1" fold="1" page="1" pageScale="1" pageWidth="827" pageHeight="1169" math="0" shadow="0">
      <root>
        <mxCell id="0" />
        <mxCell id="1" parent="0" />
        <mxCell id="ybVhzSZ3yJq0IbKlZSbC-16" value="loop" style="shape=umlFrame;whiteSpace=wrap;html=1;" vertex="1" parent="1">
          <mxGeometry x="260" y="280" width="560" height="250" as="geometry" />
        </mxCell>
        <mxCell id="ybVhzSZ3yJq0IbKlZSbC-1" value="&lt;span style=&quot;color: rgb(0, 0, 0); font-family: Helvetica; font-size: 12px; font-style: normal; font-variant-ligatures: normal; font-variant-caps: normal; font-weight: 400; letter-spacing: normal; orphans: 2; text-align: center; text-indent: 0px; text-transform: none; widows: 2; word-spacing: 0px; -webkit-text-stroke-width: 0px; background-color: rgb(248, 249, 250); text-decoration-thickness: initial; text-decoration-style: initial; text-decoration-color: initial; float: none; display: inline !important;&quot;&gt;사용자가 팬, 물펌프, 조명을 자동제어한다.&lt;/span&gt;" style="text;whiteSpace=wrap;html=1;" vertex="1" parent="1">
          <mxGeometry x="50" y="40" width="260" height="40" as="geometry" />
        </mxCell>
        <mxCell id="ybVhzSZ3yJq0IbKlZSbC-5" value="농부" style="shape=umlLifeline;perimeter=lifelinePerimeter;whiteSpace=wrap;html=1;container=1;collapsible=0;recursiveResize=0;outlineConnect=0;" vertex="1" parent="1">
          <mxGeometry x="50" y="100" width="100" height="450" as="geometry" />
        </mxCell>
        <mxCell id="ybVhzSZ3yJq0IbKlZSbC-6" value="원하는 온도/토양습도&lt;br&gt;/조도 값 입력" style="html=1;verticalAlign=bottom;endArrow=block;rounded=0;" edge="1" parent="ybVhzSZ3yJq0IbKlZSbC-5" target="ybVhzSZ3yJq0IbKlZSbC-7">
          <mxGeometry width="80" relative="1" as="geometry">
            <mxPoint x="50" y="110" as="sourcePoint" />
            <mxPoint x="180" y="110" as="targetPoint" />
            <Array as="points" />
          </mxGeometry>
        </mxCell>
        <mxCell id="ybVhzSZ3yJq0IbKlZSbC-7" value="&amp;nbsp;자동조절 인터페이스" style="shape=umlLifeline;perimeter=lifelinePerimeter;whiteSpace=wrap;html=1;container=1;collapsible=0;recursiveResize=0;outlineConnect=0;" vertex="1" parent="1">
          <mxGeometry x="170" y="100" width="100" height="450" as="geometry" />
        </mxCell>
        <mxCell id="ybVhzSZ3yJq0IbKlZSbC-8" value="확인 메세지 출력" style="html=1;verticalAlign=bottom;endArrow=open;dashed=1;endSize=8;rounded=0;" edge="1" parent="ybVhzSZ3yJq0IbKlZSbC-7" target="ybVhzSZ3yJq0IbKlZSbC-5">
          <mxGeometry relative="1" as="geometry">
            <mxPoint x="49.5" y="150" as="sourcePoint" />
            <mxPoint x="-70.5" y="150" as="targetPoint" />
            <Array as="points">
              <mxPoint x="20" y="150" />
            </Array>
          </mxGeometry>
        </mxCell>
        <mxCell id="ybVhzSZ3yJq0IbKlZSbC-27" value="" style="html=1;points=[];perimeter=orthogonalPerimeter;" vertex="1" parent="ybVhzSZ3yJq0IbKlZSbC-7">
          <mxGeometry x="45" y="110" width="10" height="40" as="geometry" />
        </mxCell>
        <mxCell id="ybVhzSZ3yJq0IbKlZSbC-9" value="자동장치제어 DB" style="shape=umlLifeline;perimeter=lifelinePerimeter;whiteSpace=wrap;html=1;container=1;collapsible=0;recursiveResize=0;outlineConnect=0;" vertex="1" parent="1">
          <mxGeometry x="520" y="100" width="100" height="460" as="geometry" />
        </mxCell>
        <mxCell id="ybVhzSZ3yJq0IbKlZSbC-10" value="자동장치제어&amp;nbsp;" style="shape=umlLifeline;perimeter=lifelinePerimeter;whiteSpace=wrap;html=1;container=1;collapsible=0;recursiveResize=0;outlineConnect=0;" vertex="1" parent="1">
          <mxGeometry x="630" y="100" width="100" height="460" as="geometry" />
        </mxCell>
        <mxCell id="ybVhzSZ3yJq0IbKlZSbC-18" value="값 비교 후&amp;nbsp;&lt;br&gt;장치 작동 여부 결정" style="edgeStyle=orthogonalEdgeStyle;html=1;align=left;spacingLeft=2;endArrow=block;rounded=0;entryX=1;entryY=0;" edge="1" parent="ybVhzSZ3yJq0IbKlZSbC-10">
          <mxGeometry relative="1" as="geometry">
            <mxPoint x="55" y="295" as="sourcePoint" />
            <Array as="points">
              <mxPoint x="90" y="295" />
              <mxPoint x="90" y="315" />
            </Array>
            <mxPoint x="60" y="315" as="targetPoint" />
          </mxGeometry>
        </mxCell>
        <mxCell id="ybVhzSZ3yJq0IbKlZSbC-25" value="" style="html=1;points=[];perimeter=orthogonalPerimeter;" vertex="1" parent="ybVhzSZ3yJq0IbKlZSbC-10">
          <mxGeometry x="45" y="230" width="10" height="40" as="geometry" />
        </mxCell>
        <mxCell id="ybVhzSZ3yJq0IbKlZSbC-26" value="" style="html=1;points=[];perimeter=orthogonalPerimeter;" vertex="1" parent="ybVhzSZ3yJq0IbKlZSbC-10">
          <mxGeometry x="45" y="280" width="10" height="90" as="geometry" />
        </mxCell>
        <mxCell id="ybVhzSZ3yJq0IbKlZSbC-11" value="온도/ 토양습도/ &lt;br&gt;조도 센서" style="shape=umlLifeline;perimeter=lifelinePerimeter;whiteSpace=wrap;html=1;container=1;collapsible=0;recursiveResize=0;outlineConnect=0;" vertex="1" parent="1">
          <mxGeometry x="290" y="100" width="100" height="450" as="geometry" />
        </mxCell>
        <mxCell id="ybVhzSZ3yJq0IbKlZSbC-22" value="if 센서값 != 설정값" style="text;html=1;resizable=0;autosize=1;align=center;verticalAlign=middle;points=[];fillColor=none;strokeColor=none;rounded=0;" vertex="1" parent="ybVhzSZ3yJq0IbKlZSbC-11">
          <mxGeometry x="-35" y="215" width="120" height="30" as="geometry" />
        </mxCell>
        <mxCell id="ybVhzSZ3yJq0IbKlZSbC-12" value="사용자 설정 값 저장" style="html=1;verticalAlign=bottom;endArrow=block;rounded=0;" edge="1" parent="1" source="ybVhzSZ3yJq0IbKlZSbC-7" target="ybVhzSZ3yJq0IbKlZSbC-9">
          <mxGeometry width="80" relative="1" as="geometry">
            <mxPoint x="249.5" y="280" as="sourcePoint" />
            <mxPoint x="363.5" y="280" as="targetPoint" />
            <Array as="points">
              <mxPoint x="310" y="270" />
            </Array>
          </mxGeometry>
        </mxCell>
        <mxCell id="ybVhzSZ3yJq0IbKlZSbC-13" value="온도/토양습도/ 조도센서&lt;br&gt;&amp;nbsp;값 저장" style="html=1;verticalAlign=bottom;endArrow=block;rounded=0;" edge="1" parent="1" source="ybVhzSZ3yJq0IbKlZSbC-11" target="ybVhzSZ3yJq0IbKlZSbC-9">
          <mxGeometry width="80" relative="1" as="geometry">
            <mxPoint x="250" y="360" as="sourcePoint" />
            <mxPoint x="380" y="360" as="targetPoint" />
            <Array as="points">
              <mxPoint x="440" y="320" />
            </Array>
          </mxGeometry>
        </mxCell>
        <mxCell id="ybVhzSZ3yJq0IbKlZSbC-14" value="온도/토양습도/ 조도&lt;br&gt;센서값 전송" style="html=1;verticalAlign=bottom;endArrow=block;rounded=0;" edge="1" parent="1" source="ybVhzSZ3yJq0IbKlZSbC-9" target="ybVhzSZ3yJq0IbKlZSbC-10">
          <mxGeometry width="80" relative="1" as="geometry">
            <mxPoint x="519.5" y="330" as="sourcePoint" />
            <mxPoint x="600" y="380" as="targetPoint" />
            <Array as="points">
              <mxPoint x="580" y="350" />
            </Array>
          </mxGeometry>
        </mxCell>
        <mxCell id="ybVhzSZ3yJq0IbKlZSbC-15" value="사용자 설정 값 전송" style="html=1;verticalAlign=bottom;endArrow=block;rounded=0;" edge="1" parent="1" source="ybVhzSZ3yJq0IbKlZSbC-9" target="ybVhzSZ3yJq0IbKlZSbC-10">
          <mxGeometry width="80" relative="1" as="geometry">
            <mxPoint x="259.5" y="290" as="sourcePoint" />
            <mxPoint x="519.5" y="290" as="targetPoint" />
            <Array as="points">
              <mxPoint x="580" y="390" />
            </Array>
          </mxGeometry>
        </mxCell>
        <mxCell id="ybVhzSZ3yJq0IbKlZSbC-20" value="팬/ 물펌프/ 조명 작동 명령" style="html=1;verticalAlign=bottom;endArrow=block;rounded=0;" edge="1" parent="1" source="ybVhzSZ3yJq0IbKlZSbC-10" target="ybVhzSZ3yJq0IbKlZSbC-21">
          <mxGeometry width="80" relative="1" as="geometry">
            <mxPoint x="519.5" y="380" as="sourcePoint" />
            <mxPoint x="649.5" y="380" as="targetPoint" />
            <Array as="points">
              <mxPoint x="590" y="450" />
            </Array>
          </mxGeometry>
        </mxCell>
        <mxCell id="ybVhzSZ3yJq0IbKlZSbC-21" value="팬/ 물펌프/ 조명" style="shape=umlLifeline;perimeter=lifelinePerimeter;whiteSpace=wrap;html=1;container=1;collapsible=0;recursiveResize=0;outlineConnect=0;" vertex="1" parent="1">
          <mxGeometry x="400" y="100" width="100" height="450" as="geometry" />
        </mxCell>
      </root>
    </mxGraphModel>
  </diagram>
</mxfile>
